<?xml version="1.0" standalone="no"?>
<!DOCTYPE svg PUBLIC "-//W3C//DTD SVG 20010904//EN"
 "http://www.w3.org/TR/2001/REC-SVG-20010904/DTD/svg10.dtd">
<svg version="1.0" xmlns="http://www.w3.org/2000/svg"
 width="1024.000000pt" height="1024.000000pt" viewBox="0 0 1024.000000 1024.000000"
 preserveAspectRatio="xMidYMid meet">
<metadata>
Created by potrace 1.14, written by Peter Selinger 2001-2017
</metadata>
<g transform="translate(0.000000,1024.000000) scale(0.100000,-0.100000)"
fill="#000000" stroke="none">
<path d="M4010 9460 c0 -5 -232 -1886 -515 -4179 -283 -2293 -515 -4172 -515
-4175 0 -3 990 -6 2200 -6 l2200 0 4 23 c7 30 106 867 106 890 0 16 -85 17
-1650 17 -1587 0 -1650 1 -1650 18 0 20 907 7351 915 7395 l5 27 -550 0 c-347
0 -550 -4 -550 -10z"/>
</g>
</svg>
